<?xml version="1.0" encoding="UTF-8"?>
<!-- Uploaded to: SVG Repo, www.svgrepo.com, Generator: SVG Repo Mixer Tools -->
<svg width="800px" height="800px" viewBox="-2 0 34 34" version="1.1" xmlns="http://www.w3.org/2000/svg" xmlns:xlink="http://www.w3.org/1999/xlink">
    
    <title>bell</title>
    <desc>Created with Sketch.</desc>
    <g id="icons" stroke="none" stroke-width="1" fill="none" fill-rule="evenodd">
        <g id="ui-gambling-website-lined-icnos-casinoshunter" transform="translate(-1255.000000, -153.000000)" fill="#252528" fill-rule="nonzero">
            <g id="square-filled" transform="translate(50.000000, 120.000000)">
                <path d="M1220.5,33 C1222.433,33 1224,34.5670034 1224,36.5 L1224,36.5 L1224.00096,36.7502564 C1228.09781,38.3506428 1231,42.3364002 1231,47 L1231,47 L1231,56 L1231.5,56 C1233.433,56 1235,57.5670034 1235,59.5 C1235,61.4329966 1233.433,63 1231.5,63 L1225.65835,63.0006859 C1224.83448,65.3307123 1222.61218,67 1220,67 C1217.38782,67 1215.16552,65.3307123 1214.34165,63.0006859 L1208.5,63 C1206.567,63 1205,61.4329966 1205,59.5 C1205,57.5670034 1206.567,56 1208.5,56 L1209,56 L1209,47 C1209,42.3360205 1211.90266,38.3499939 1216.00004,36.7498656 L1216,36.5 C1216,34.5670034 1217.567,33 1219.5,33 L1219.5,33 Z M1223.46423,63.0011092 L1216.53577,63.0011092 C1217.22755,64.1961002 1218.51989,65 1220,65 C1221.48011,65 1222.77245,64.1961002 1223.46423,63.0011092 Z M1231.5,58 L1208.5,58 C1207.67157,58 1207,58.6715729 1207,59.5 C1207,60.3284271 1207.67157,61 1208.5,61 L1231.5,61 C1232.32843,61 1233,60.3284271 1233,59.5 C1233,58.6715729 1232.32843,58 1231.5,58 Z M1220,38 C1215.02944,38 1211,42.0294373 1211,47 L1211,47 L1211,56 L1229,56 L1229,47 C1229,42.1181973 1225.11319,38.1442086 1220.26536,38.0038371 Z M1220.5,35 L1219.5,35 C1218.78301,35 1218.18351,35.5030506 1218.0352,36.1754583 C1218.67375,36.0599229 1219.32988,36 1220,36 C1220.67012,36 1221.32625,36.0599229 1221.96332,36.1747025 C1221.81649,35.5030506 1221.21699,35 1220.5,35 L1220.5,35 Z" id="bell">
</path>
            </g>
        </g>
    </g>
</svg>